<svg width="111" height="228" viewBox="0 0 111 228" fill="none" xmlns="http://www.w3.org/2000/svg">
<path d="M-83.3289 6.33403C-102.868 20.9902 -95.5405 52.1871 -100.069 76.2113C-103.424 94.0082 -108.704 111.087 -106.462 129.058C-104.202 147.175 -99.1057 165.295 -87.2278 179.145C-75.3696 192.972 -57.3009 198.084 -40.7549 205.675C-21.4717 214.522 -3.02481 231.678 17.7291 227.296C38.5134 222.909 47.9436 199.22 62.629 183.85C78.0742 167.685 99.4398 155.991 106.225 134.674C113.415 112.089 113.262 85.1339 100.383 65.2458C87.8079 45.8274 61.3374 43.1434 40.4879 33.1612C22.6986 24.6442 6.22166 15.1127 -13.05 10.9372C-36.4699 5.86282 -64.1501 -8.05233 -83.3289 6.33403Z" fill="#7021F8"/>
</svg>
