<svg width="213" height="273" viewBox="0 0 213 273" fill="none" xmlns="http://www.w3.org/2000/svg">
<path d="M184.66 7.58416C208.052 25.133 199.28 62.4871 204.702 91.2531C208.718 112.562 215.04 133.011 212.356 154.53C209.65 176.222 203.549 197.919 189.328 214.503C175.131 231.059 153.498 237.18 133.688 246.269C110.601 256.861 88.516 277.403 63.6684 272.157C38.7845 266.904 27.4941 238.54 9.91202 220.136C-8.5797 200.78 -34.1596 186.779 -42.2837 161.254C-50.8909 134.212 -50.7082 101.937 -35.2887 78.1232C-20.2334 54.8723 11.4584 51.6586 36.4205 39.7062C57.7187 29.5082 77.4456 18.0955 100.519 13.0958C128.558 7.01996 161.698 -9.6416 184.66 7.58416Z" fill="#7021F8"/>
</svg>
