<svg width="158" height="228" viewBox="0 0 158 228" fill="none" xmlns="http://www.w3.org/2000/svg">
<path d="M194.329 6.33403C213.868 20.9902 206.54 52.1871 211.069 76.2113C214.424 94.0082 219.704 111.087 217.462 129.058C215.202 147.175 210.106 165.295 198.228 179.145C186.37 192.972 168.301 198.084 151.755 205.675C132.472 214.522 114.025 231.678 93.2709 227.296C72.4866 222.909 63.0564 199.22 48.371 183.85C32.9258 167.685 11.5602 155.991 4.77456 134.674C-2.41461 112.089 -2.26204 85.1339 10.6171 65.2458C23.1921 45.8274 49.6626 43.1434 70.5121 33.1612C88.3014 24.6442 104.778 15.1127 124.05 10.9372C147.47 5.86282 175.15 -8.05233 194.329 6.33403Z" fill="#7021F8"/>
</svg>
