<svg width="32" height="32" viewBox="0 0 32 32" fill="none" xmlns="http://www.w3.org/2000/svg">
<path d="M29.08 5.25313C27.3333 9.61313 23.3466 15.3065 19.5466 19.0265C19 15.5865 16.2533 12.8931 12.7866 12.4131C16.52 8.59979 22.2533 4.55979 26.6266 2.79979C27.4 2.50646 28.1733 2.73313 28.6533 3.21313C29.16 3.71979 29.4 4.47979 29.08 5.25313Z" fill="#7021F8"/>
<path opacity="0.4" d="M19.5468 19.0269C18.8801 19.6802 18.2134 20.2802 17.5734 20.7869L14.9468 22.8936C14.6134 23.1336 14.2801 23.3336 13.9068 23.4936C13.9068 23.2402 13.8801 22.9869 13.8534 22.7202C13.7068 21.6136 13.2001 20.5602 12.3068 19.6669C11.3868 18.7602 10.2934 18.2402 9.16011 18.0936C8.89344 18.0669 8.61344 18.0536 8.36011 18.0669C8.50677 17.6536 8.73344 17.2669 9.01344 16.9469L11.0934 14.3202C11.5868 13.6936 12.1601 13.0536 12.7868 12.4136C16.2534 12.8936 19.0001 15.5869 19.5468 19.0269Z" fill="#7021F8"/>
<path d="M13.9067 23.4934C13.9067 24.9601 13.3467 26.3601 12.28 27.4134C11.4667 28.2401 10.3733 28.8001 9.04001 28.9601L5.77334 29.3201C3.98668 29.5201 2.45335 27.9868 2.65335 26.1868L3.01335 22.9068C3.33335 19.9868 5.77335 18.1201 8.36001 18.0668C8.61335 18.0534 8.89334 18.0668 9.16001 18.0934C10.2933 18.2401 11.3867 18.7601 12.3067 19.6668C13.2 20.5601 13.7067 21.6134 13.8533 22.7201C13.88 22.9868 13.9067 23.2401 13.9067 23.4934Z" fill="#7021F8"/>
</svg>
