<svg width="32" height="32" viewBox="0 0 32 32" fill="none" xmlns="http://www.w3.org/2000/svg">
<path d="M9.65341 2.66675H7.12008C4.20008 2.66675 2.66675 4.20008 2.66675 7.10675V9.64008C2.66675 12.5467 4.20008 14.0801 7.10675 14.0801H9.64008C12.5467 14.0801 14.0801 12.5467 14.0801 9.64008V7.10675C14.0934 4.20008 12.5601 2.66675 9.65341 2.66675Z" fill="#7021F8"/>
<path opacity="0.4" d="M24.8933 2.66675H22.3599C19.4533 2.66675 17.9199 4.20008 17.9199 7.10675V9.64008C17.9199 12.5467 19.4533 14.0801 22.3599 14.0801H24.8933C27.7999 14.0801 29.3333 12.5467 29.3333 9.64008V7.10675C29.3333 4.20008 27.7999 2.66675 24.8933 2.66675Z" fill="#7021F8"/>
<path d="M24.8933 17.9067H22.3599C19.4533 17.9067 17.9199 19.4401 17.9199 22.3467V24.8801C17.9199 27.7867 19.4533 29.3201 22.3599 29.3201H24.8933C27.7999 29.3201 29.3333 27.7867 29.3333 24.8801V22.3467C29.3333 19.4401 27.7999 17.9067 24.8933 17.9067Z" fill="#7021F8"/>
<path opacity="0.4" d="M9.65341 17.9067H7.12008C4.20008 17.9067 2.66675 19.4401 2.66675 22.3467V24.8801C2.66675 27.8001 4.20008 29.3334 7.10675 29.3334H9.64008C12.5467 29.3334 14.0801 27.8001 14.0801 24.8934V22.3601C14.0934 19.4401 12.5601 17.9067 9.65341 17.9067Z" fill="#7021F8"/>
</svg>
