<svg width="64" height="64" viewBox="0 0 64 64" fill="none" xmlns="http://www.w3.org/2000/svg">
<path opacity="0.4" d="M43.3068 9.73334H20.6934C14.1068 9.73334 8.77344 15.0933 8.77344 21.6533V46.7467C8.77344 53.3067 14.1334 58.6667 20.6934 58.6667H43.2801C49.8668 58.6667 55.2001 53.3067 55.2001 46.7467V21.6533C55.2268 15.0667 49.8668 9.73334 43.3068 9.73334Z" fill="#888780" fill-opacity="0.45"/>
<path d="M38.2667 5.33334H25.7334C22.96 5.33334 20.6934 7.57334 20.6934 10.3467V12.8533C20.6934 15.6267 22.9334 17.8667 25.7067 17.8667H38.2667C41.04 17.8667 43.28 15.6267 43.28 12.8533V10.3467C43.3067 7.57334 41.04 5.33334 38.2667 5.33334Z" fill="#888780" fill-opacity="0.45"/>
<path d="M40.0002 34.5333H21.3335C20.2402 34.5333 19.3335 33.6267 19.3335 32.5333C19.3335 31.44 20.2402 30.5333 21.3335 30.5333H40.0002C41.0935 30.5333 42.0002 31.44 42.0002 32.5333C42.0002 33.6267 41.0935 34.5333 40.0002 34.5333Z" fill="#888780" fill-opacity="0.45"/>
<path d="M33.0135 45.2H21.3335C20.2402 45.2 19.3335 44.2933 19.3335 43.2C19.3335 42.1067 20.2402 41.2 21.3335 41.2H33.0135C34.1068 41.2 35.0135 42.1067 35.0135 43.2C35.0135 44.2933 34.1068 45.2 33.0135 45.2Z" fill="#888780" fill-opacity="0.45"/>
</svg>
