<svg width="48" height="48" viewBox="0 0 48 48" fill="none" xmlns="http://www.w3.org/2000/svg">
<path d="M24 29.5C23.18 29.5 22.5 28.82 22.5 28V18C22.5 17.18 23.18 16.5 24 16.5C24.82 16.5 25.5 17.18 25.5 18V28C25.5 28.82 24.82 29.5 24 29.5Z" fill="#E01B1B"/>
<path d="M24 36C23.88 36 23.74 35.98 23.6 35.96C23.48 35.94 23.36 35.9 23.24 35.84C23.12 35.8 23 35.74 22.88 35.66C22.78 35.58 22.68 35.5 22.58 35.42C22.22 35.04 22 34.52 22 34C22 33.48 22.22 32.96 22.58 32.58C22.68 32.5 22.78 32.42 22.88 32.34C23 32.26 23.12 32.2 23.24 32.16C23.36 32.1 23.48 32.06 23.6 32.04C23.86 31.98 24.14 31.98 24.38 32.04C24.52 32.06 24.64 32.1 24.76 32.16C24.88 32.2 25 32.26 25.12 32.34C25.22 32.42 25.32 32.5 25.42 32.58C25.78 32.96 26 33.48 26 34C26 34.52 25.78 35.04 25.42 35.42C25.32 35.5 25.22 35.58 25.12 35.66C25 35.74 24.88 35.8 24.76 35.84C24.64 35.9 24.52 35.94 24.38 35.96C24.26 35.98 24.12 36 24 36Z" fill="#E01B1B"/>
<path d="M36.1199 44.32H11.88C7.97995 44.32 4.99995 42.9 3.47995 40.34C1.97995 37.78 2.17995 34.48 4.07995 31.06L16.2 9.25999C18.2 5.65999 20.96 3.67999 24 3.67999C27.04 3.67999 29.8 5.65999 31.8 9.25999L43.9199 31.08C45.82 34.5 46.04 37.78 44.52 40.36C43 42.9 40.02 44.32 36.1199 44.32ZM24 6.67999C22.12 6.67999 20.28 8.11999 18.82 10.72L6.71995 32.54C5.35995 34.98 5.13995 37.22 6.07995 38.84C7.01995 40.46 9.09995 41.34 11.9 41.34H36.1399C38.9399 41.34 41 40.46 41.9599 38.84C42.9199 37.22 42.68 35 41.32 32.54L29.18 10.72C27.72 8.11999 25.88 6.67999 24 6.67999Z" fill="#E01B1B"/>
</svg>
