<svg width="64" height="64" viewBox="0 0 64 64" fill="none" xmlns="http://www.w3.org/2000/svg">
<path d="M38.7469 9.25331L33.4135 3.91997C33.3869 3.89331 33.3602 3.89331 33.3602 3.86664C33.2002 3.70664 32.9869 3.57331 32.7735 3.46664C32.7469 3.46664 32.7469 3.46664 32.7202 3.43997C32.5069 3.35997 32.2935 3.33331 32.0802 3.30664C32.0002 3.30664 31.9469 3.30664 31.8669 3.30664C31.7069 3.30664 31.5469 3.35997 31.3869 3.41331C31.3069 3.43997 31.2535 3.46664 31.2002 3.49331C30.9869 3.59997 30.7735 3.70664 30.6135 3.89331L25.2802 9.22664C24.5069 9.99997 24.5069 11.28 25.2802 12.0533C26.0535 12.8266 27.3335 12.8266 28.1069 12.0533L30.0269 10.1333V24C30.0269 25.0933 30.9335 26 32.0269 26C33.1202 26 34.0002 25.0933 34.0002 24V10.16L35.9202 12.08C36.3202 12.48 36.8269 12.6666 37.3335 12.6666C37.8402 12.6666 38.3469 12.48 38.7469 12.08C39.5202 11.3066 39.5202 10.0266 38.7469 9.25331Z" fill="#7021F8" fill-opacity="0.2"/>
<path opacity="0.4" d="M43.1735 16H20.8268C11.1202 16 5.3335 21.7867 5.3335 31.4933V43.1467C5.3335 52.88 11.1202 58.6667 20.8268 58.6667H43.1468C52.8535 58.6667 58.6402 52.88 58.6402 43.1733V31.52C58.6668 21.7867 52.8802 16 43.1735 16Z" fill="#7021F8" fill-opacity="0.2"/>
<path d="M56.8002 32.6133H47.5202C44.9068 32.6133 42.5868 34.0533 41.4135 36.4L39.1735 40.8267C38.6402 41.8933 37.5735 42.56 36.4002 42.56H27.6535C26.8268 42.56 25.6535 42.3733 24.8802 40.8267L22.6402 36.4267C21.4668 34.1067 19.1202 32.64 16.5335 32.64H7.20016C6.16016 32.64 5.3335 33.4667 5.3335 34.5067V43.2C5.3335 52.88 11.1468 58.6667 20.8535 58.6667H43.2002C52.3468 58.6667 57.9735 53.6533 58.6668 44.7467V34.48C58.6668 33.4667 57.8402 32.6133 56.8002 32.6133Z" fill="#7021F8" fill-opacity="0.2"/>
</svg>
