<svg width="64" height="64" viewBox="0 0 64 64" fill="none" xmlns="http://www.w3.org/2000/svg">
<path d="M31.9995 23.3333C30.9062 23.3333 29.9995 22.4267 29.9995 21.3333V10.16L28.0795 12.08C27.3062 12.8533 26.0262 12.8533 25.2529 12.08C24.4795 11.3067 24.4795 10.0267 25.2529 9.25334L30.5862 3.92001C31.1462 3.36001 32.0262 3.17334 32.7729 3.49334C33.5195 3.78668 33.9995 4.53334 33.9995 5.33334V21.3333C33.9995 22.4267 33.0929 23.3333 31.9995 23.3333Z" fill="#7021F8"/>
<path d="M37.3335 12.6667C36.8268 12.6667 36.3202 12.48 35.9202 12.08L30.5868 6.74669C29.8135 5.97336 29.8135 4.69336 30.5868 3.92003C31.3602 3.14669 32.6402 3.14669 33.4135 3.92003L38.7468 9.25336C39.5202 10.0267 39.5202 11.3067 38.7468 12.08C38.3468 12.48 37.8402 12.6667 37.3335 12.6667Z" fill="#7021F8"/>
<path d="M42.6667 60.6667H21.3333C6 60.6667 6 52.5333 6 45.3333V42.6667C6 36.72 6 30 18.6667 30C21.84 30 23.0133 30.7733 24.6667 32C24.7467 32.08 24.8533 32.1333 24.9333 32.24L27.6533 35.12C29.9467 37.5467 34.1067 37.5467 36.4 35.12L39.12 32.24C39.2 32.16 39.28 32.08 39.3867 32C41.04 30.7467 42.2133 30 45.3867 30C58.0533 30 58.0533 36.72 58.0533 42.6667V45.3333C58 55.52 52.8533 60.6667 42.6667 60.6667ZM18.6667 34C10 34 10 36.72 10 42.6667V45.3333C10 52.64 10 56.6667 21.3333 56.6667H42.6667C50.6133 56.6667 54 53.28 54 45.3333V42.6667C54 36.72 54 34 45.3333 34C43.4133 34 43.0133 34.24 41.8667 35.0933L39.28 37.84C37.36 39.8667 34.7733 40.9867 32 40.9867C29.2267 40.9867 26.64 39.8667 24.72 37.84L22.1333 35.0933C20.9867 34.24 20.5867 34 18.6667 34Z" fill="#7021F8"/>
<path d="M13.3335 34C12.2402 34 11.3335 33.0933 11.3335 32V26.6667C11.3335 21.4933 11.3335 15.0667 21.1468 14.1333C22.2135 14 23.2268 14.8267 23.3335 15.9467C23.4402 17.04 22.6402 18.0267 21.5202 18.1333C15.3335 18.6933 15.3335 21.2 15.3335 26.6667V32C15.3335 33.0933 14.4268 34 13.3335 34Z" fill="#7021F8"/>
<path d="M50.6665 34C49.5731 34 48.6665 33.0933 48.6665 32V26.6667C48.6665 21.2 48.6665 18.6933 42.4798 18.1067C41.3865 18 40.5865 17.0133 40.6931 15.92C40.7998 14.8267 41.7598 14 42.8798 14.1333C52.6931 15.0667 52.6931 21.4933 52.6931 26.6667V32C52.6665 33.0933 51.7598 34 50.6665 34Z" fill="#7021F8"/>
</svg>
