<svg width="64" height="64" viewBox="0 0 64 64" fill="none" xmlns="http://www.w3.org/2000/svg">
<path d="M58.6666 29.52V44.4C58.6666 52.2667 52.2666 58.6667 44.3999 58.6667H19.5999C11.7333 58.6667 5.33325 52.2667 5.33325 44.4V25.1733H57.9732C58.3732 26.3733 58.5866 27.6 58.6399 28.9067C58.6666 29.0933 58.6666 29.3333 58.6666 29.52Z" fill="#888780" fill-opacity="0.45"/>
<path opacity="0.4" d="M57.9733 25.1733H5.33325V17.12C5.33325 10.6133 10.6133 5.33333 17.1199 5.33333H23.3333C27.6799 5.33333 29.0399 6.74666 30.7733 9.06666L34.5066 14.0267C35.3333 15.12 35.4399 15.28 36.9866 15.28H44.4266C50.7466 15.2533 56.1333 19.4133 57.9733 25.1733Z" fill="#888780" fill-opacity="0.45"/>
</svg>
