<svg width="64" height="64" viewBox="0 0 64 64" fill="none" xmlns="http://www.w3.org/2000/svg">
<path d="M56.1601 31.52L55.7334 30.9333C54.9868 30.0266 54.1068 29.3066 53.0934 28.7733C51.7334 28 50.1868 27.6 48.5868 27.6H15.3868C13.7868 27.6 12.2668 28 10.8801 28.7733C9.84012 29.3333 8.90679 30.1066 8.13345 31.0666C6.61345 33.0133 5.89345 35.4133 6.13345 37.8133L7.12012 50.2666C7.46679 54.0266 7.92012 58.6666 16.3735 58.6666H47.6268C56.0801 58.6666 56.5068 54.0266 56.8801 50.24L57.8668 37.84C58.1068 35.6 57.5201 33.36 56.1601 31.52ZM38.3735 46.24H25.6001C24.5601 46.24 23.7334 45.3866 23.7334 44.3733C23.7334 43.36 24.5601 42.5066 25.6001 42.5066H38.3735C39.4135 42.5066 40.2401 43.36 40.2401 44.3733C40.2401 45.4133 39.4135 46.24 38.3735 46.24Z" fill="#7021F8" fill-opacity="0.2"/>
<path opacity="0.4" d="M9.01343 30.16C9.60009 29.6266 10.1868 29.1466 10.8801 28.7733C12.2401 28 13.7868 27.6 15.3868 27.6H48.6134C50.2134 27.6 51.7334 28 53.1201 28.7733C53.8134 29.1466 54.4268 29.6266 54.9868 30.1866V28.7733V26.1866C54.9868 16.6666 52.0801 13.76 42.5601 13.76H36.2134C35.0401 13.76 35.0134 13.7333 34.3201 12.8266L31.1201 8.53331C29.6001 6.55998 28.4001 5.33331 24.5868 5.33331H21.4401C11.9201 5.33331 9.01343 8.23998 9.01343 17.76V28.8V30.16Z" fill="#7021F8" fill-opacity="0.2"/>
</svg>
