<svg width="16" height="16" viewBox="0 0 16 16" fill="none" xmlns="http://www.w3.org/2000/svg">
<path opacity="0.4" d="M14.6666 13.38V8.11999C14.6666 4.38666 11.6666 1.33333 7.99992 1.33333C4.33325 1.33333 1.33325 4.38666 1.33325 8.11999V13.38C1.33325 14.22 1.83324 14.4467 2.44657 13.8867L3.11324 13.28C3.35991 13.0533 3.75992 13.0533 4.00659 13.28L5.33992 14.5C5.58659 14.7267 5.98657 14.7267 6.23324 14.5L7.56657 13.28C7.81324 13.0533 8.21325 13.0533 8.45992 13.28L9.79325 14.5C10.0399 14.7267 10.4399 14.7267 10.6866 14.5L12.0199 13.28C12.2666 13.0533 12.6666 13.0533 12.9132 13.28L13.5799 13.8867C14.1666 14.4467 14.6666 14.22 14.6666 13.38Z" fill="#7021F8"/>
<path d="M8.00009 10.7134C6.95343 10.7134 5.90675 10.3867 5.03342 9.73336C4.81342 9.5667 4.76678 9.25336 4.93344 9.03336C5.10011 8.81336 5.41343 8.76669 5.63343 8.93336C7.02677 9.98002 8.97342 9.98002 10.3668 8.93336C10.5868 8.76669 10.9001 8.81336 11.0667 9.03336C11.2334 9.25336 11.1868 9.5667 10.9668 9.73336C10.0934 10.3867 9.04676 10.7134 8.00009 10.7134Z" fill="#7021F8"/>
<path d="M8 7.58667C8.87629 7.58667 9.58667 6.87629 9.58667 6C9.58667 5.12371 8.87629 4.41333 8 4.41333C7.12371 4.41333 6.41333 5.12371 6.41333 6C6.41333 6.87629 7.12371 7.58667 8 7.58667Z" fill="#7021F8"/>
</svg>
