<svg width="64" height="64" viewBox="0 0 64 64" fill="none" xmlns="http://www.w3.org/2000/svg">
<path opacity="0.4" d="M50.8533 13.2001C61.44 23.7867 61.2533 41.0666 50.32 51.44C40.2133 61.0133 23.8133 61.0133 13.68 51.44C2.71998 41.0666 2.53328 23.7867 13.1466 13.2001C23.5466 2.77338 40.4533 2.77338 50.8533 13.2001Z" fill="#888780" fill-opacity="0.45"/>
<path d="M32 48.8534C27.7867 48.8534 23.6 47.3334 20.4 44.32C19.6 43.5467 19.5733 42.2934 20.32 41.4934C21.0933 40.6934 22.3466 40.6668 23.1466 41.4134C28.0266 46.0268 35.9734 46.0268 40.8534 41.4134C41.6534 40.6668 42.9333 40.6934 43.68 41.4934C44.4267 42.2934 44.4 43.5733 43.6 44.32C40.4 47.3334 36.2133 48.8534 32 48.8534Z" fill="#888780" fill-opacity="0.45"/>
</svg>
