<svg width="230" height="232" viewBox="0 0 230 232" fill="none" xmlns="http://www.w3.org/2000/svg">
<path fill-rule="evenodd" clip-rule="evenodd" d="M61.7905 6.25738C48.0505 20.5469 44.753 26.0428 47.501 28.7908C49.6994 30.9892 51.8978 30.9892 61.2409 28.7908C65.6377 27.6916 68.9353 26.5925 69.4849 26.5925C70.0345 26.5925 70.0344 28.2413 70.0344 30.4396C70.0344 34.8364 72.2328 38.134 74.4312 37.5844C76.6296 37.0348 76.6297 33.7373 74.9809 19.9973C73.8817 11.2038 72.7825 7.90612 70.5841 9.55492C70.5841 9.55492 70.0344 11.7534 70.0344 14.5013C70.0344 17.2493 70.0344 19.4477 68.9353 19.9973C68.3857 21.0965 53.5465 25.4932 53.5465 24.394C53.5465 23.2948 57.3937 18.8981 62.3401 13.4021C67.2865 7.35651 70.5841 2.41018 70.5841 1.86058C70.0345 -0.337808 67.8361 0.761387 61.2409 7.35656L61.7905 6.25738ZM198.091 166.19C198.091 166.19 191.496 163.992 189.847 166.19C188.198 168.938 190.946 174.984 195.343 173.885C199.74 172.785 200.839 166.74 197.541 166.19H198.091ZM22.7691 165.091C25.5171 166.19 33.761 166.19 35.9594 171.137C38.1578 175.533 45.3026 197.517 45.8522 199.716C46.9514 201.914 48.0506 206.311 39.257 203.563C29.9139 200.815 21.6699 172.236 22.7691 165.091ZM119.498 216.753C119.498 216.753 119.498 200.815 123.895 199.166C128.841 198.067 155.772 199.166 157.97 203.013C160.168 207.41 161.817 227.745 154.123 227.745C146.978 227.745 120.048 217.852 118.949 216.204L119.498 216.753ZM125.544 40.882C125.544 40.882 104.659 41.4316 94.7663 48.0268C84.324 54.6219 85.9728 60.1179 96.9648 59.0187C107.957 57.3699 125.544 41.4316 125.544 41.4316V40.882ZM98.0639 174.434C98.0639 174.434 99.1631 158.496 111.804 160.694C124.445 162.893 126.643 174.434 124.445 174.984C122.246 174.984 99.7127 177.182 98.0639 174.984V174.434ZM106.858 127.718C105.209 127.718 99.7128 129.917 102.461 137.611C104.659 145.306 122.796 135.413 132.689 144.756C142.581 154.099 146.429 159.595 147.528 142.558C148.627 125.52 140.383 124.421 131.589 127.169C122.796 130.466 107.957 127.169 107.957 127.169L106.858 127.718ZM156.871 67.2627C156.871 67.2627 150.276 68.3619 149.726 71.6595C149.176 74.9571 154.123 86.4986 158.52 81.5522C162.916 76.6059 159.619 67.8123 156.871 67.2627ZM56.8441 101.338C56.8441 101.338 45.8521 104.635 49.6993 109.582C53.5465 114.528 62.8897 113.978 62.8897 112.33C62.8897 110.681 56.8441 101.338 56.8441 101.338ZM197.541 85.949C195.343 88.1474 193.694 90.3458 192.595 94.193C192.045 96.941 190.946 99.1394 190.396 99.1394C188.748 99.1394 183.252 105.185 181.603 109.032C178.855 113.979 179.404 124.421 182.702 124.421C186 124.421 183.801 122.772 183.252 119.474C183.252 115.627 183.252 113.978 185.45 110.131C187.099 107.383 188.748 105.185 189.847 104.635C191.496 104.086 192.045 104.635 192.595 106.834C193.144 111.23 197.541 112.879 200.289 110.131C201.388 109.032 202.488 107.383 202.488 105.735C202.488 103.536 199.19 99.1394 196.442 98.0402C195.343 98.0402 195.343 96.941 196.442 94.193C198.091 89.7962 200.289 88.1474 204.136 87.5978C206.335 87.5978 207.984 87.5978 209.632 89.2466C212.38 91.9946 214.579 91.9946 214.579 89.2466C214.579 86.4986 211.281 83.2011 205.785 83.2011C200.289 83.2011 200.839 83.7506 197.541 86.4986V85.949ZM21.6699 123.871C20.5707 126.619 21.6699 128.818 24.4178 128.818C27.1658 128.818 27.1658 128.268 27.1658 126.619C27.1658 123.322 22.7691 120.574 21.6699 123.871ZM8.47951 56.2707C1.88433 57.3699 -0.863653 60.1179 0.235542 63.4155C0.78514 65.6139 2.43394 65.6139 2.43394 63.4155C2.43394 60.6675 13.4259 59.5683 16.1739 62.3163C19.4715 65.6139 19.4715 67.8123 16.1739 70.5603C11.7771 73.8579 10.6779 78.2547 12.8763 81.5522C14.5251 83.7506 15.0747 83.7506 17.2731 82.6514C18.9219 82.1018 20.5707 79.9035 21.6699 77.7051C22.7691 75.5067 23.8683 74.4075 23.8683 74.4075C23.8683 74.4075 25.5171 75.5067 26.6162 77.1554C28.8146 80.453 29.3642 88.1474 27.7154 93.6434C26.0666 97.4906 27.7154 99.689 29.9138 96.941C36.509 89.2466 34.3106 74.9571 25.5171 70.5603C23.3187 69.4611 21.1203 67.8123 21.1203 66.7131C21.1203 64.5147 18.3723 59.5684 16.1739 58.4692C13.4259 57.37 9.57872 56.2708 7.38033 56.8204L8.47951 56.2707ZM85.9728 220.051C84.324 222.249 85.9728 224.448 89.2703 224.448C92.5679 224.448 94.2167 222.249 92.0183 220.051C90.3695 218.402 87.6216 218.402 85.9728 220.051ZM196.992 105.185C196.992 105.735 196.992 105.735 195.892 105.185C195.892 105.185 194.793 104.086 194.793 103.536C194.793 102.987 194.793 102.987 195.892 103.536C196.442 103.536 196.992 104.635 196.992 105.185ZM200.839 48.0268C198.64 49.1259 198.64 53.5228 200.839 54.0724C204.136 55.1716 206.884 52.4235 205.785 49.1259C205.236 46.9275 203.037 46.378 200.839 47.4772V48.0268ZM168.412 10.6541C159.069 16.1501 154.673 19.9973 154.673 22.7453C154.673 25.4933 158.52 27.6916 164.565 28.7908C171.16 29.89 171.16 30.4397 168.962 36.4853C167.863 40.882 167.313 42.5308 168.412 44.1796C170.061 47.4772 172.809 46.9276 173.908 43.0804C176.107 37.5844 179.954 22.1957 179.404 20.5469C178.305 17.7989 175.008 18.8981 173.908 22.1957C173.359 23.8445 172.26 25.4933 172.26 25.4933C172.26 25.4933 168.962 24.9437 166.214 23.8445L160.718 22.1957L163.466 19.9973C165.115 18.8981 168.962 16.1501 172.26 13.9517C177.756 10.1045 179.954 7.35656 176.107 7.35656C172.26 7.35656 171.71 9.0053 168.412 10.6541ZM110.155 2.41013C105.758 5.70772 101.911 12.3029 101.911 18.8981C101.911 25.4932 101.911 24.394 105.209 27.142C107.957 29.89 109.606 30.4396 112.354 30.4396C116.75 30.4396 124.445 27.1421 126.643 23.8445C130.49 18.8981 128.292 6.80696 122.246 1.86058C118.949 -0.887406 113.453 -0.337808 109.606 1.86058L110.155 2.41013ZM121.147 7.35656C125.544 14.5013 124.994 19.4477 120.048 22.1957C109.605 28.7909 103.01 17.2493 111.254 7.35656C115.101 2.95978 118.399 2.95978 121.147 7.35656Z" fill="#7021F8"/>
<path fill-rule="evenodd" clip-rule="evenodd" d="M127.743 37.0348C124.995 37.0348 122.797 39.7828 123.896 41.4316C123.896 41.4316 127.743 42.5307 132.14 42.5307C139.834 42.5307 144.231 43.6299 146.429 46.9275C147.529 48.0267 146.979 49.1259 144.231 51.8739C139.834 56.2707 138.185 62.3163 138.735 70.0106C139.834 79.9034 146.979 89.2465 153.025 89.2465C159.07 89.2465 156.322 90.8953 153.025 93.0937C149.727 95.2921 132.14 103.536 130.491 103.536C128.842 103.536 127.743 102.437 125.545 101.338C113.454 93.0937 90.3704 102.437 92.0192 114.528C92.0192 117.276 92.0193 117.276 85.4241 118.925C79.3785 120.024 77.7297 120.024 75.5313 118.925C73.8825 118.375 72.2338 116.726 72.2338 115.627C72.2338 113.978 72.2338 113.978 74.9818 115.627C78.2794 117.276 82.6761 116.726 85.4241 114.528C87.6225 112.33 87.6225 110.681 84.3249 106.834C81.5769 104.086 81.0273 103.536 77.1801 104.635C72.7833 105.185 72.2337 104.635 74.4321 99.1393L75.5313 95.8417L77.1801 98.0401C79.9281 101.338 83.2257 101.887 87.6225 100.238C92.0193 98.0401 94.2177 95.2921 94.2177 90.8953C94.2177 86.4986 89.2713 81.5522 85.4241 81.5522C81.5769 81.5522 76.0809 85.949 76.0809 88.1474C76.0809 90.3457 74.4321 91.4449 72.7833 93.6433C68.9361 98.0401 68.9362 99.6889 69.4858 108.482C69.4858 110.681 69.4858 112.879 68.9362 112.879C67.2874 112.879 63.4402 106.284 60.6922 99.6889C55.1962 86.4986 59.593 71.1098 71.1346 62.3163L74.9818 59.5683L76.6306 64.5146C80.4778 76.0562 93.6681 76.6058 110.706 66.1635C114.003 63.9651 118.4 60.6675 120.598 59.0187C128.293 51.8739 123.346 49.1259 115.652 56.2707C108.507 62.3163 95.3168 68.9114 89.2712 68.9114C83.2257 68.9114 84.3249 68.9114 82.1265 66.1635C80.4778 64.5147 79.9281 62.3162 79.9281 60.1178C79.9281 57.3699 81.0273 56.8203 85.9737 54.0723C89.2713 52.4235 96.9657 49.6755 103.561 48.0267C112.904 45.2787 115.652 44.1796 115.102 43.0804C114.553 40.3324 106.309 41.4315 95.8665 45.2787C85.4241 49.1259 70.0353 57.3699 64.5394 62.8658C59.593 67.8122 55.1962 76.6058 53.5474 83.7506C52.9978 87.0481 50.7994 91.9946 48.6011 95.2921C44.2043 102.437 43.6547 106.284 46.9522 111.78C49.7002 115.627 54.6467 117.826 60.1426 117.276C62.8906 117.276 63.9898 117.276 65.6386 118.925L67.837 121.123L63.4402 122.772C55.1962 126.619 52.9979 135.413 58.4938 143.657C63.4402 151.901 71.6842 155.198 79.3786 152.45L83.7753 150.801L82.6761 153C82.6761 154.099 81.5769 157.397 81.5769 160.145V165.091L70.585 172.236C60.1426 178.831 59.593 179.381 59.0434 177.182C59.0434 176.083 57.9442 172.236 57.3946 168.938C55.7458 160.694 52.9979 153 50.2499 150.801C48.0515 148.603 38.7083 148.603 29.9147 150.801C27.1667 150.801 22.2204 151.901 19.4724 151.901C12.8772 151.901 11.778 153 12.8772 161.793C15.0756 185.976 28.8156 207.41 42.0059 207.41C55.1962 207.41 59.0434 202.464 60.6922 197.517C60.6922 196.418 63.9898 194.22 67.2873 192.571C70.5849 190.922 76.6306 187.075 80.4777 184.327C87.0729 179.93 88.1721 179.381 89.2712 181.029C93.668 185.426 105.21 188.174 115.652 187.075C129.941 185.976 140.933 184.327 141.483 183.228C141.483 183.228 143.132 182.129 144.781 182.129C146.613 182.129 146.063 183.594 143.132 186.525C138.735 190.922 138.735 190.922 131.041 190.922C119.499 190.922 117.301 192.021 114.553 199.166C109.606 211.807 110.706 217.303 118.4 221.15C125.545 224.997 143.681 230.493 150.826 231.592C155.773 232.142 159.07 231.592 164.566 231.043C174.459 228.844 176.657 226.096 178.306 215.104C178.856 210.708 179.405 205.212 178.856 203.563C177.756 198.067 173.36 194.769 164.017 192.571L159.07 191.472L162.368 186.525C166.765 179.381 166.215 176.083 160.719 170.037L155.773 165.641L157.421 160.694C158.521 157.946 159.07 156.298 159.07 157.397C159.07 160.145 166.215 167.289 170.612 169.488C172.81 170.587 176.657 171.686 178.306 171.686C179.955 171.686 181.604 171.686 181.604 172.785C181.604 173.885 182.703 174.984 183.802 176.083C184.901 177.182 187.1 179.93 188.199 182.678C192.046 190.922 194.794 192.571 199.74 188.724C201.939 187.075 202.488 185.976 201.939 182.129C201.939 179.93 201.939 177.732 201.939 177.732C201.939 177.732 205.786 178.831 210.183 179.93C214.579 181.029 218.976 181.579 220.076 181.579C223.373 180.48 225.571 176.633 223.923 173.885C222.823 172.236 222.823 172.236 225.571 171.137C228.319 170.587 230.518 166.74 229.419 163.442C228.869 161.793 226.121 160.145 222.274 160.145C218.427 160.145 220.076 160.145 220.076 159.045C220.076 157.946 218.976 156.847 217.877 155.748C215.129 153 207.984 153 201.389 155.748C199.191 156.847 196.443 156.847 195.893 156.847C195.344 156.847 192.596 156.847 190.397 157.397C187.1 157.946 184.901 157.946 182.153 157.397C177.207 155.748 170.612 149.153 168.413 143.657L166.215 139.26L169.513 136.512C178.856 129.367 177.757 117.826 167.314 112.879C163.467 111.23 162.368 110.681 159.07 111.78C155.773 112.879 154.673 112.879 153.025 111.78C151.376 110.681 149.177 110.131 143.132 110.681C138.735 110.681 135.987 110.681 135.987 110.681C135.987 110.681 137.086 109.582 137.636 109.582C138.185 109.582 143.132 106.834 149.177 103.536C161.269 96.9409 163.467 94.1929 163.467 87.0482C163.467 79.9034 164.017 81.5522 166.215 78.2546C172.26 69.461 169.513 57.3699 160.719 53.5227C158.521 52.4235 153.574 49.1259 150.826 45.8284C146.429 41.4316 144.781 40.3324 140.384 39.2332C134.888 38.134 133.239 38.134 129.392 39.2332L127.743 37.0348ZM74.9818 130.466C76.081 128.268 78.8289 127.718 78.8289 129.367C78.8289 131.016 78.8289 131.016 77.7298 132.115C77.1802 133.764 77.1801 134.314 78.8289 134.863C79.9281 134.863 81.577 135.962 82.1265 137.062C83.7753 139.26 82.1265 140.359 77.7298 139.81C74.9818 139.81 74.4321 139.81 72.7833 142.008C70.5849 145.306 68.3865 144.206 70.0353 140.359C71.1345 138.161 70.585 137.611 68.3866 136.512C65.6386 135.413 64.5394 133.214 66.1882 132.115C66.7378 132.115 68.9362 132.115 70.585 132.115C73.333 132.665 74.4322 132.115 74.9818 130.466ZM123.346 73.3082C127.194 69.4611 128.293 68.3619 129.392 69.4611C130.491 70.5603 129.392 71.6594 127.743 75.5066L124.446 80.453L127.743 82.1017C134.338 84.8497 130.491 88.1474 123.346 85.949C121.698 85.3994 120.598 85.9489 118.95 89.2465C115.102 96.3913 110.706 93.6434 114.553 85.949C116.202 83.201 116.202 82.6514 113.454 81.5522C110.706 80.453 110.156 76.6058 112.904 76.6058C114.003 76.6058 115.652 76.6058 116.751 77.1554C118.4 77.705 119.499 77.1554 123.346 72.7586V73.3082ZM125.545 201.365C125.545 199.716 127.193 198.617 127.743 198.617C128.293 198.617 129.392 199.716 129.392 203.563C129.392 210.158 128.293 212.906 126.644 212.906C124.995 212.906 124.446 207.41 126.094 201.914L125.545 201.365ZM153.025 53.5227C154.673 54.0723 155.223 55.1715 155.223 61.7667C155.223 68.3618 155.223 69.4611 157.421 72.2091C159.62 74.957 159.62 75.5066 158.521 79.3538C156.322 85.9489 150.826 84.3002 146.979 76.0562C143.132 67.8123 143.681 57.9195 148.078 54.0723C149.727 52.4235 150.277 52.4235 153.025 54.0723V53.5227ZM53.5474 98.0401C53.5474 98.5897 54.6466 101.887 56.845 105.185L60.1426 111.23H56.845C52.9978 111.23 48.6011 107.383 48.6011 103.536C48.6011 99.6889 51.8987 93.6433 52.9979 95.2921C52.9979 95.8417 53.5474 96.9409 53.5474 98.0401ZM121.148 104.086L124.995 105.734L111.805 110.681C104.66 113.429 98.0648 115.627 97.5152 115.078C94.7672 113.429 99.1641 106.834 105.21 104.086C110.156 101.887 116.751 101.887 121.698 104.086H121.148ZM81.5769 108.482C83.2257 110.131 83.2257 111.23 79.9281 111.23C76.6305 111.23 74.4321 109.032 75.5313 107.933C76.6305 106.834 80.4777 107.383 81.5769 107.933V108.482ZM124.995 113.978C118.95 120.024 112.904 122.222 111.805 117.826C111.805 116.726 113.454 115.627 118.95 113.429C123.346 111.78 127.193 110.131 127.743 110.131C128.293 110.131 127.193 111.78 124.995 113.429V113.978ZM149.177 113.429C154.124 118.925 155.773 131.566 154.124 148.603C152.475 162.893 152.475 162.893 149.177 163.442C147.529 163.442 144.781 165.091 143.132 166.74L139.834 169.488L138.185 163.992C135.987 157.397 131.59 151.901 126.094 149.153C115.102 143.657 96.4161 149.153 89.8209 160.145C88.7217 162.343 87.0729 163.992 86.5233 163.992C84.8745 163.992 84.8745 157.946 85.9737 154.099C87.0729 150.801 87.6225 150.252 89.8209 149.702C94.2177 149.702 96.4161 144.206 98.0648 127.718C98.6144 121.673 99.1641 121.123 104.11 120.024C106.858 119.474 107.408 120.024 109.606 122.222C114.003 127.169 120.598 125.52 127.743 117.826C132.14 113.429 133.789 112.33 142.033 112.33C145.33 112.33 146.979 112.33 148.078 113.978L149.177 113.429ZM164.017 115.078C172.261 120.574 170.612 131.016 161.269 132.115C159.62 132.115 159.07 132.115 159.07 129.367C159.07 126.619 159.62 126.07 160.719 124.97C162.917 123.322 162.368 119.474 159.62 118.925C157.421 118.925 156.322 117.276 156.322 114.528C156.322 111.78 161.269 112.33 164.566 114.528L164.017 115.078ZM94.7672 124.421C94.7672 128.268 91.4697 143.107 90.3705 144.206C88.1721 146.405 87.6225 145.305 89.2712 142.557C91.4696 138.161 90.9201 132.665 88.1721 128.268C86.5233 125.52 85.9737 124.421 87.0729 123.871C87.6225 123.871 89.2713 123.322 89.8209 122.772C93.1185 121.673 94.7672 122.222 94.7672 123.871V124.421ZM82.6761 128.818C89.8209 136.512 84.3249 146.405 72.7833 146.405C61.2418 146.405 67.8369 146.405 64.5394 142.557C60.1426 138.161 59.0434 134.314 60.6922 129.917C62.341 125.52 66.1882 123.871 73.333 124.421C78.8289 124.421 79.9281 125.52 82.6761 128.268V128.818ZM162.917 143.107C164.566 147.504 164.566 148.054 162.917 150.252C161.818 151.717 160.902 151.717 160.169 150.252C158.521 147.504 158.521 137.611 160.169 138.161C160.719 138.161 161.818 140.359 162.917 143.107ZM125.545 154.099C129.942 157.397 132.14 161.793 137.086 176.083C137.636 178.831 132.69 179.381 113.454 179.381C99.7137 179.381 96.9657 179.38 94.2177 177.732C92.5689 176.633 90.9201 175.533 90.3705 174.984C88.7217 172.236 88.7217 167.839 90.3705 163.992C96.4161 152.45 115.652 146.954 124.995 154.099H125.545ZM169.513 154.649C172.261 157.397 172.261 157.397 170.612 160.694L169.513 163.442L166.215 160.145C162.917 156.847 162.917 156.847 164.566 154.649C166.215 151.351 166.765 151.351 169.513 154.649ZM46.9522 153.549C46.9522 153.549 44.7539 155.748 40.9067 157.397L34.3115 160.694L26.6171 157.946C22.2204 156.297 19.4724 155.198 20.5716 155.198C29.3651 153.549 45.8531 152.45 46.9522 153.549ZM28.266 162.343C33.2123 163.442 34.3115 165.091 34.3115 168.938C34.3115 170.587 28.8155 170.587 22.2204 168.938C18.3732 167.839 16.7244 166.74 16.7244 165.641C16.7244 164.541 16.7244 162.343 16.1748 160.694V157.397C15.6252 157.397 19.4724 159.045 19.4724 159.045C21.6708 160.145 25.518 161.244 28.266 162.343ZM50.2499 160.694C51.8987 163.992 54.097 177.732 54.6466 188.724C55.1962 196.418 55.1962 196.418 52.4482 198.617C50.7994 199.716 49.1506 200.815 49.1506 200.815C47.5019 200.815 42.5555 188.174 39.8075 176.633L36.5099 163.442L42.0059 160.694C45.3035 159.045 48.0515 157.946 48.0515 157.946C48.0515 157.946 49.1506 159.045 49.7002 160.694H50.2499ZM181.054 160.694C182.52 160.694 182.886 161.793 182.153 163.992C181.054 166.19 181.054 166.19 177.757 165.641C172.81 164.541 172.81 164.541 174.459 161.244C175.558 159.045 176.108 159.045 177.757 159.595C178.856 160.145 180.504 160.694 181.604 160.694H181.054ZM204.687 160.694C206.336 161.244 205.236 164.541 203.588 166.74C202.488 167.839 201.389 169.488 200.84 170.587C200.84 171.686 199.191 172.236 196.992 172.236C194.794 172.236 192.596 172.785 191.496 173.885C188.748 176.083 188.199 175.533 186.55 172.785C185.451 170.587 185.451 169.488 186.55 166.19C188.748 159.595 189.848 159.045 196.992 160.145C200.84 160.145 204.137 161.244 204.137 161.244L204.687 160.694ZM215.129 161.793C215.679 161.793 216.228 162.893 216.228 164.541C216.228 167.839 216.228 167.839 211.282 165.091C207.984 163.442 207.435 162.893 208.534 161.793C209.084 161.244 210.732 160.694 211.832 161.244C212.931 161.244 214.58 161.793 215.129 161.793ZM223.373 162.893C225.572 162.893 223.923 165.641 221.724 166.19C218.976 166.19 218.976 166.19 219.526 163.992C219.526 162.343 220.625 161.793 221.175 162.343C221.724 162.343 222.824 162.893 223.373 162.893ZM84.8745 170.587C85.4241 176.083 83.2257 177.182 81.5769 172.236C80.4777 168.938 80.4777 168.389 81.5769 167.839C83.7753 166.19 84.3249 166.74 84.8745 170.587ZM151.376 167.839C153.025 168.938 145.33 177.182 143.132 176.633C141.483 176.083 142.033 173.335 145.33 170.037C148.078 167.289 149.177 166.74 151.376 168.389V167.839ZM209.084 168.938C209.633 169.488 209.633 170.587 209.633 172.236C209.633 173.885 208.534 173.885 206.336 173.335C204.137 172.969 203.588 171.869 204.687 170.037C206.336 167.839 207.435 167.289 209.084 168.938ZM78.8289 178.281C78.8289 178.281 77.1802 179.93 74.9818 181.579C70.585 184.327 70.0354 183.228 69.4858 177.732C69.4858 177.732 71.1345 175.533 72.7833 174.434L76.0809 172.236L77.1801 174.984C77.7297 176.633 78.2793 178.281 78.2793 178.831L78.8289 178.281ZM216.228 172.785C220.625 174.984 220.076 177.182 214.58 176.083C211.832 176.083 210.732 174.984 211.832 172.785C212.198 171.32 213.664 171.32 216.228 172.785ZM28.8155 173.885C31.5635 173.885 34.3115 174.984 34.8611 175.533C35.9603 176.633 37.6091 183.228 36.5099 183.228C35.4107 183.228 32.6627 182.678 28.8155 181.579C22.2204 179.93 21.6708 179.93 20.022 176.633C18.3732 172.236 18.3732 171.686 21.1212 172.785C22.2204 172.785 25.518 173.885 28.8155 174.434V173.885ZM160.169 176.633C160.169 178.281 160.169 178.831 155.223 178.831C149.177 178.831 148.628 177.732 154.124 174.434C157.971 172.236 159.62 172.785 160.169 176.633ZM196.992 179.93C198.092 183.777 197.542 185.426 194.794 185.426C192.046 185.426 193.145 185.426 193.695 184.327C195.344 182.678 195.344 181.579 193.145 181.579C190.947 181.579 190.397 178.831 193.145 177.732C195.893 176.083 196.443 176.083 197.542 179.93H196.992ZM66.1882 181.029C67.2874 184.327 66.1882 185.976 63.9898 187.625C60.1426 189.823 60.1426 189.823 59.593 186.525C59.593 184.877 59.593 183.228 61.7914 181.579C65.089 178.831 65.6386 178.831 66.1882 181.029ZM155.223 185.976C151.925 189.273 150.826 189.823 147.529 189.823H144.231L148.628 185.976C151.925 182.678 153.574 182.129 156.322 182.129H159.62L155.773 185.976H155.223ZM34.8611 187.075C37.6091 187.075 39.2579 188.174 39.8075 190.373C39.8075 192.021 40.3571 193.121 40.3571 193.121C40.3571 193.121 37.6091 193.121 34.3115 193.121C29.3651 192.571 28.2659 192.021 26.6171 188.724L24.4187 185.426H27.7163C29.3651 186.525 33.2123 187.075 34.8611 187.625V187.075ZM150.277 195.869C155.223 196.968 160.719 198.067 162.917 199.166L166.215 200.815V206.311C164.017 215.104 164.566 218.952 166.215 219.501C167.864 220.051 169.513 215.654 170.062 206.86C170.062 201.365 170.062 199.166 169.513 198.067C167.864 196.418 168.413 196.418 172.261 198.067C173.909 198.616 175.009 200.265 175.558 201.914C176.108 205.212 175.558 217.303 173.909 220.6C172.261 223.898 165.665 226.646 157.971 226.646H154.673V218.402C154.673 214.005 154.673 207.96 154.673 205.212C154.673 201.914 154.673 200.265 154.124 199.716C151.925 199.166 150.826 204.112 150.277 214.555C149.727 224.997 149.727 225.547 144.231 223.348L140.933 222.249V212.356C142.033 206.86 142.582 202.464 142.582 201.914C142.582 199.166 142.582 198.067 141.483 198.067C139.834 198.067 138.735 201.364 137.086 210.708C136.537 215.654 135.987 220.051 135.987 220.051C135.987 220.051 122.797 215.654 120.598 214.005C117.85 212.356 117.85 209.608 120.049 200.815L121.698 194.22H132.69C138.735 194.22 147.529 194.769 152.475 195.869H150.277ZM43.6547 198.067C45.3035 201.364 44.7539 202.464 42.0059 202.464C39.2579 202.464 38.1587 201.365 36.5099 199.166L33.2123 196.418H38.1587C42.0059 196.418 43.1051 196.418 44.2043 198.067H43.6547Z" fill="#34008D"/>
</svg>
