<svg width="64" height="64" viewBox="0 0 64 64" fill="none" xmlns="http://www.w3.org/2000/svg">
<path opacity="0.4" d="M31.9997 58.6666C46.7273 58.6666 58.6663 46.7276 58.6663 32C58.6663 17.2724 46.7273 5.33331 31.9997 5.33331C17.2721 5.33331 5.33301 17.2724 5.33301 32C5.33301 46.7276 17.2721 58.6666 31.9997 58.6666Z" fill="#7021F8" fill-opacity="0.2"/>
<path d="M32 36.6666C33.0933 36.6666 34 35.76 34 34.6666V21.3333C34 20.24 33.0933 19.3333 32 19.3333C30.9067 19.3333 30 20.24 30 21.3333V34.6666C30 35.76 30.9067 36.6666 32 36.6666Z" fill="#7021F8" fill-opacity="0.2"/>
<path d="M34.453 41.6533C34.3197 41.3333 34.133 41.04 33.893 40.7733C33.6263 40.5333 33.333 40.3466 33.013 40.2133C32.373 39.9466 31.6263 39.9466 30.9863 40.2133C30.6663 40.3466 30.373 40.5333 30.1063 40.7733C29.8663 41.04 29.6797 41.3333 29.5463 41.6533C29.413 41.9733 29.333 42.32 29.333 42.6666C29.333 43.0133 29.413 43.36 29.5463 43.68C29.6797 44.0266 29.8663 44.2933 30.1063 44.56C30.373 44.8 30.6663 44.9866 30.9863 45.12C31.3063 45.2533 31.653 45.3333 31.9997 45.3333C32.3463 45.3333 32.693 45.2533 33.013 45.12C33.333 44.9866 33.6263 44.8 33.893 44.56C34.133 44.2933 34.3197 44.0266 34.453 43.68C34.5863 43.36 34.6663 43.0133 34.6663 42.6666C34.6663 42.32 34.5863 41.9733 34.453 41.6533Z" fill="#7021F8" fill-opacity="0.2"/>
</svg>
