<svg width="48" height="48" viewBox="0 0 48 48" fill="none" xmlns="http://www.w3.org/2000/svg">
<path d="M14.9609 36.7001L21.1609 41.5001C21.9609 42.3001 23.7609 42.7001 24.9609 42.7001H32.5609C34.9609 42.7001 37.5609 40.9001 38.1609 38.5001L42.9609 23.9001C43.9609 21.1001 42.1609 18.7001 39.1609 18.7001H31.1609C29.9609 18.7001 28.9609 17.7001 29.1609 16.3001L30.1609 9.90006C30.5609 8.10006 29.3609 6.10006 27.5609 5.50006C25.9609 4.90006 23.9609 5.70006 23.1609 6.90006L14.9609 19.1001" stroke="#3B82F6" stroke-width="3" stroke-miterlimit="10"/>
<path d="M4.75977 36.7001V17.1C4.75977 14.3 5.95977 13.3 8.75977 13.3H10.7598C13.5598 13.3 14.7598 14.3 14.7598 17.1V36.7001C14.7598 39.5001 13.5598 40.5 10.7598 40.5H8.75977C5.95977 40.5 4.75977 39.5001 4.75977 36.7001Z" stroke="#3B82F6" stroke-width="3" stroke-linecap="round" stroke-linejoin="round"/>
</svg>
