<svg width="32" height="32" viewBox="0 0 32 32" fill="none" xmlns="http://www.w3.org/2000/svg">
<path opacity="0.4" d="M27.4932 11.2668C26.0932 5.10683 20.7199 2.3335 15.9999 2.3335C15.9999 2.3335 15.9999 2.3335 15.9865 2.3335C11.2799 2.3335 5.89322 5.0935 4.49322 11.2535C2.93322 18.1335 7.14655 23.9602 10.9599 27.6268C12.3732 28.9868 14.1866 29.6668 15.9999 29.6668C17.8132 29.6668 19.6266 28.9868 21.0266 27.6268C24.8399 23.9602 29.0532 18.1468 27.4932 11.2668Z" fill="#7021F8"/>
<path d="M16 17.9469C18.3196 17.9469 20.2 16.0665 20.2 13.7469C20.2 11.4273 18.3196 9.54688 16 9.54688C13.6805 9.54688 11.8 11.4273 11.8 13.7469C11.8 16.0665 13.6805 17.9469 16 17.9469Z" fill="#7021F8"/>
</svg>
