<svg width="16" height="16" viewBox="0 0 16 16" fill="none" xmlns="http://www.w3.org/2000/svg">
<path d="M13.2399 5.39333C13.2399 5.67333 13.2199 5.94667 13.1866 6.20667C12.8799 6.07333 12.5466 6 12.1933 6C11.3799 6 10.6599 6.39333 10.2133 6.99333C9.75992 6.39333 9.03992 6 8.22658 6C6.85992 6 5.75326 7.11333 5.75326 8.49333C5.75326 10.28 6.69992 11.6467 7.75326 12.5733C7.71992 12.5933 7.68659 12.6 7.65326 12.6133C7.45326 12.6867 7.11992 12.6867 6.91992 12.6133C5.19326 12.02 1.33325 9.56667 1.33325 5.39333C1.33325 3.55333 2.81325 2.06667 4.63991 2.06667C5.72658 2.06667 6.68658 2.58667 7.28658 3.39333C7.89325 2.58667 8.85325 2.06667 9.93325 2.06667C11.7599 2.06667 13.2399 3.55333 13.2399 5.39333Z" stroke="#1E1E1E" stroke-width="1.5" stroke-linecap="round" stroke-linejoin="round"/>
<path d="M14.6665 8.49333C14.6665 11.6133 11.7798 13.4533 10.4865 13.8933C10.3332 13.9467 10.0865 13.9467 9.93317 13.8933C9.37983 13.7067 8.53317 13.26 7.75317 12.5733C6.69984 11.6467 5.75317 10.28 5.75317 8.49333C5.75317 7.11333 6.85983 6 8.2265 6C9.03983 6 9.75984 6.39333 10.2132 6.99333C10.6598 6.39333 11.3798 6 12.1932 6C12.5465 6 12.8798 6.07333 13.1865 6.20667C14.0598 6.59333 14.6665 7.46666 14.6665 8.49333Z" stroke="#1E1E1E" stroke-width="1.5" stroke-linecap="round" stroke-linejoin="round"/>
</svg>
