<svg width="64" height="64" viewBox="0 0 64 64" fill="none" xmlns="http://www.w3.org/2000/svg">
<path opacity="0.4" d="M58.6668 19.8133V35.8133C58.6668 39.8133 57.3335 43.1467 54.9868 45.4933C52.6668 47.8133 49.3335 49.1466 45.3335 49.1466V54.8267C45.3335 56.96 42.9602 58.2401 41.2002 57.0667L29.3335 49.1466H23.6802C23.8935 48.3466 24.0002 47.52 24.0002 46.6667C24.0002 43.9467 22.9602 41.44 21.2535 39.5467C19.3335 37.36 16.4802 36 13.3335 36C10.3468 36 7.62684 37.2267 5.68018 39.2267C5.44018 38.1601 5.3335 37.0133 5.3335 35.8133V19.8133C5.3335 11.8133 10.6668 6.47998 18.6668 6.47998H45.3335C53.3335 6.47998 58.6668 11.8133 58.6668 19.8133Z" fill="#888780" fill-opacity="0.45"/>
<path d="M41.3332 30H22.6665C21.5732 30 20.6665 29.0933 20.6665 28C20.6665 26.9067 21.5732 26 22.6665 26H41.3332C42.4265 26 43.3332 26.9067 43.3332 28C43.3332 29.0933 42.4265 30 41.3332 30Z" fill="#888780" fill-opacity="0.45"/>
<path d="M21.2532 39.5467C19.3332 37.36 16.4798 36 13.3332 36C7.43984 36 2.6665 40.7733 2.6665 46.6667C2.6665 48.6667 3.22647 50.56 4.21313 52.16C4.74647 53.0667 5.43983 53.8933 6.23983 54.5866C8.10649 56.2933 10.5865 57.3333 13.3332 57.3333C17.2265 57.3333 20.6132 55.2533 22.4532 52.16C23.4399 50.56 23.9998 48.6667 23.9998 46.6667C23.9998 43.9467 22.9598 41.44 21.2532 39.5467ZM17.5999 50.88C17.1999 51.28 16.6932 51.4666 16.1865 51.4666C15.6799 51.4666 15.1732 51.28 14.7732 50.88L13.3599 49.4666L11.8931 50.9333C11.4931 51.3333 10.9865 51.52 10.4798 51.52C9.97315 51.52 9.46649 51.3333 9.06649 50.9333C8.29315 50.1599 8.29315 48.8799 9.06649 48.1066L10.5332 46.64L9.11987 45.2267C8.34654 44.4534 8.34654 43.1734 9.11987 42.4001C9.89321 41.6267 11.1732 41.6267 11.9465 42.4001L13.3599 43.8133L14.6932 42.48C15.4665 41.7066 16.7465 41.7066 17.5199 42.48C18.2932 43.2533 18.2932 44.5333 17.5199 45.3066L16.1865 46.64L17.5999 48.0534C18.3732 48.8267 18.3732 50.08 17.5999 50.88Z" fill="#888780" fill-opacity="0.45"/>
</svg>
