<svg width="32" height="32" viewBox="0 0 32 32" fill="none" xmlns="http://www.w3.org/2000/svg">
<path opacity="0.4" d="M21.3337 2.66669H10.667C5.33366 2.66669 2.66699 5.33335 2.66699 10.6667V28C2.66699 28.7334 3.26699 29.3334 4.00033 29.3334H21.3337C26.667 29.3334 29.3337 26.6667 29.3337 21.3334V10.6667C29.3337 5.33335 26.667 2.66669 21.3337 2.66669Z" fill="#7021F8"/>
<path d="M20.6663 15H16.9997V11.3333C16.9997 10.7866 16.5463 10.3333 15.9997 10.3333C15.453 10.3333 14.9997 10.7866 14.9997 11.3333V15H11.333C10.7863 15 10.333 15.4533 10.333 16C10.333 16.5466 10.7863 17 11.333 17H14.9997V20.6666C14.9997 21.2133 15.453 21.6666 15.9997 21.6666C16.5463 21.6666 16.9997 21.2133 16.9997 20.6666V17H20.6663C21.213 17 21.6663 16.5466 21.6663 16C21.6663 15.4533 21.213 15 20.6663 15Z" fill="#7021F8"/>
</svg>
