<svg width="64" height="64" viewBox="0 0 64 64" fill="none" xmlns="http://www.w3.org/2000/svg">
<path opacity="0.4" d="M5.33325 34.5867V18.64C5.33325 11.28 11.3066 5.33333 18.6666 5.33333H45.3332C52.6932 5.33333 58.6666 11.28 58.6666 18.64V37.2533C58.6666 44.5867 52.6932 50.5333 45.3332 50.5333H41.3332C40.5066 50.5333 39.7066 50.9333 39.1999 51.6L35.1999 56.9067C33.4399 59.2533 30.5599 59.2533 28.7999 56.9067L24.7999 51.6C24.3733 51.0133 23.4132 50.5333 22.6666 50.5333H18.6666C11.3066 50.5333 5.33325 44.5867 5.33325 37.2533V34.5867Z" fill="#888780" fill-opacity="0.45"/>
<path d="M45.3334 23.3333H18.6667C17.5734 23.3333 16.6667 22.4267 16.6667 21.3333C16.6667 20.24 17.5734 19.3333 18.6667 19.3333H45.3334C46.4267 19.3333 47.3334 20.24 47.3334 21.3333C47.3334 22.4267 46.4267 23.3333 45.3334 23.3333Z" fill="#888780" fill-opacity="0.45"/>
<path d="M34.6667 36.6667H18.6667C17.5734 36.6667 16.6667 35.76 16.6667 34.6667C16.6667 33.5733 17.5734 32.6667 18.6667 32.6667H34.6667C35.7601 32.6667 36.6667 33.5733 36.6667 34.6667C36.6667 35.76 35.7601 36.6667 34.6667 36.6667Z" fill="#888780" fill-opacity="0.45"/>
</svg>
