<svg width="32" height="32" viewBox="0 0 32 32" fill="none" xmlns="http://www.w3.org/2000/svg">
<path opacity="0.4" d="M21.3334 2.6665H10.6667C5.33341 2.6665 2.66675 5.33317 2.66675 10.6665V27.9998C2.66675 28.7332 3.26675 29.3332 4.00008 29.3332H21.3334C26.6667 29.3332 29.3334 26.6665 29.3334 21.3332V10.6665C29.3334 5.33317 26.6667 2.6665 21.3334 2.6665Z" fill="#7021F8"/>
<path d="M20.6666 15.0002H16.9999V11.3335C16.9999 10.7868 16.5466 10.3335 15.9999 10.3335C15.4533 10.3335 14.9999 10.7868 14.9999 11.3335V15.0002H11.3333C10.7866 15.0002 10.3333 15.4535 10.3333 16.0002C10.3333 16.5468 10.7866 17.0002 11.3333 17.0002H14.9999V20.6668C14.9999 21.2135 15.4533 21.6668 15.9999 21.6668C16.5466 21.6668 16.9999 21.2135 16.9999 20.6668V17.0002H20.6666C21.2133 17.0002 21.6666 16.5468 21.6666 16.0002C21.6666 15.4535 21.2133 15.0002 20.6666 15.0002Z" fill="#7021F8"/>
</svg>
