<svg width="64" height="65" viewBox="0 0 64 65" fill="none" xmlns="http://www.w3.org/2000/svg">
<path opacity="0.4" d="M43.3068 10.7333H20.6934C14.1068 10.7333 8.77344 16.0933 8.77344 22.6533V47.7466C8.77344 54.3066 14.1334 59.6666 20.6934 59.6666H43.2801C49.8668 59.6666 55.2001 54.3066 55.2001 47.7466V22.6533C55.2268 16.0666 49.8668 10.7333 43.3068 10.7333Z" fill="#7021F8" fill-opacity="0.2"/>
<path d="M38.2667 6.33337H25.7334C22.96 6.33337 20.6934 8.57337 20.6934 11.3467V13.8534C20.6934 16.6267 22.9334 18.8667 25.7067 18.8667H38.2667C41.04 18.8667 43.28 16.6267 43.28 13.8534V11.3467C43.3067 8.57337 41.04 6.33337 38.2667 6.33337Z" fill="#7021F8" fill-opacity="0.2"/>
<path d="M40.0002 35.5333H21.3335C20.2402 35.5333 19.3335 34.6267 19.3335 33.5333C19.3335 32.44 20.2402 31.5333 21.3335 31.5333H40.0002C41.0935 31.5333 42.0002 32.44 42.0002 33.5333C42.0002 34.6267 41.0935 35.5333 40.0002 35.5333Z" fill="#7021F8" fill-opacity="0.2"/>
<path d="M33.0135 46.2H21.3335C20.2402 46.2 19.3335 45.2933 19.3335 44.2C19.3335 43.1066 20.2402 42.2 21.3335 42.2H33.0135C34.1068 42.2 35.0135 43.1066 35.0135 44.2C35.0135 45.2933 34.1068 46.2 33.0135 46.2Z" fill="#7021F8" fill-opacity="0.2"/>
</svg>
