<svg width="32" height="32" viewBox="0 0 32 32" fill="none" xmlns="http://www.w3.org/2000/svg">
<path opacity="0.4" d="M15.3334 27.9998C22.329 27.9998 28.0001 22.3288 28.0001 15.3332C28.0001 8.33756 22.329 2.6665 15.3334 2.6665C8.33781 2.6665 2.66675 8.33756 2.66675 15.3332C2.66675 22.3288 8.33781 27.9998 15.3334 27.9998Z" fill="#7021F8"/>
<path d="M28.3999 29.3332C28.1599 29.3332 27.9199 29.2399 27.7466 29.0666L25.2666 26.5866C24.9066 26.2266 24.9066 25.6399 25.2666 25.2666C25.6266 24.9066 26.2132 24.9066 26.5866 25.2666L29.0666 27.7466C29.4266 28.1066 29.4266 28.6932 29.0666 29.0666C28.8799 29.2399 28.6399 29.3332 28.3999 29.3332Z" fill="#7021F8"/>
<path d="M18.9333 14.5999H16.5999V12.2666C16.5999 11.7199 16.1466 11.2666 15.5999 11.2666C15.0533 11.2666 14.5999 11.7199 14.5999 12.2666V14.5999H12.2666C11.7199 14.5999 11.2666 15.0533 11.2666 15.5999C11.2666 16.1466 11.7199 16.5999 12.2666 16.5999H14.5999V18.9333C14.5999 19.4799 15.0533 19.9333 15.5999 19.9333C16.1466 19.9333 16.5999 19.4799 16.5999 18.9333V16.5999H18.9333C19.4799 16.5999 19.9333 16.1466 19.9333 15.5999C19.9333 15.0533 19.4799 14.5999 18.9333 14.5999Z" fill="#7021F8"/>
</svg>
