<svg width="32" height="32" viewBox="0 0 32 32" fill="none" xmlns="http://www.w3.org/2000/svg">
<path opacity="0.4" d="M15.3337 28C22.3293 28 28.0003 22.329 28.0003 15.3334C28.0003 8.33775 22.3293 2.66669 15.3337 2.66669C8.33805 2.66669 2.66699 8.33775 2.66699 15.3334C2.66699 22.329 8.33805 28 15.3337 28Z" fill="#7021F8"/>
<path d="M28.4004 29.3333C28.1604 29.3333 27.9204 29.24 27.7471 29.0666L25.2671 26.5866C24.9071 26.2266 24.9071 25.64 25.2671 25.2666C25.6271 24.9066 26.2137 24.9066 26.5871 25.2666L29.0671 27.7466C29.4271 28.1066 29.4271 28.6933 29.0671 29.0666C28.8804 29.24 28.6404 29.3333 28.4004 29.3333Z" fill="#7021F8"/>
<path d="M18.9333 14.6H16.5999V12.2667C16.5999 11.72 16.1466 11.2667 15.5999 11.2667C15.0533 11.2667 14.5999 11.72 14.5999 12.2667V14.6H12.2666C11.7199 14.6 11.2666 15.0533 11.2666 15.6C11.2666 16.1467 11.7199 16.6 12.2666 16.6H14.5999V18.9333C14.5999 19.48 15.0533 19.9333 15.5999 19.9333C16.1466 19.9333 16.5999 19.48 16.5999 18.9333V16.6H18.9333C19.4799 16.6 19.9333 16.1467 19.9333 15.6C19.9333 15.0533 19.4799 14.6 18.9333 14.6Z" fill="#7021F8"/>
</svg>
