<svg width="24" height="24" viewBox="0 0 24 24" fill="none" xmlns="http://www.w3.org/2000/svg">
<path d="M12 0C18.6274 0 24 5.37258 24 12C24 18.6274 18.6274 24 12 24C5.37258 24 0 18.6274 0 12C3.22129e-08 5.37258 5.37258 3.22139e-08 12 0ZM17.9053 8.04102C18.011 7.32705 17.2892 6.77613 16.6279 7.06543L5.17578 12.0752C4.65668 12.3023 4.74547 13.0644 5.30273 13.166L7.60938 13.5859C8.184 13.6903 8.77724 13.5712 9.26758 13.2539L14.1016 10.126C14.3372 9.97353 14.5884 10.2964 14.3828 10.4873L10.9658 13.6602C10.4167 14.1704 10.4955 15.0613 11.126 15.4668L14.8154 17.8379C15.5168 18.2887 16.4489 17.8657 16.5713 17.041L17.9053 8.04102Z" fill="#888780" fill-opacity="0.45"/>
</svg>
