<svg width="48" height="48" viewBox="0 0 48 48" fill="none" xmlns="http://www.w3.org/2000/svg">
<path d="M24 45.5C12.14 45.5 2.5 35.86 2.5 24C2.5 12.14 12.14 2.5 24 2.5C35.86 2.5 45.5 12.14 45.5 24C45.5 35.86 35.86 45.5 24 45.5ZM24 5.5C13.8 5.5 5.5 13.8 5.5 24C5.5 34.2 13.8 42.5 24 42.5C34.2 42.5 42.5 34.2 42.5 24C42.5 13.8 34.2 5.5 24 5.5Z" fill="#0FA372"/>
<path d="M21.1599 31.16C20.7599 31.16 20.3799 31 20.0999 30.72L14.4399 25.06C13.8599 24.48 13.8599 23.52 14.4399 22.94C15.0199 22.36 15.9799 22.36 16.5599 22.94L21.1599 27.54L31.4399 17.26C32.0199 16.68 32.9799 16.68 33.5599 17.26C34.1399 17.84 34.1399 18.8 33.5599 19.38L22.2199 30.72C21.9399 31 21.5599 31.16 21.1599 31.16Z" fill="#0FA372"/>
</svg>
