<svg width="20" height="25" viewBox="0 0 20 25" fill="none" xmlns="http://www.w3.org/2000/svg">
<path d="M8.39587 3.82497C8.39587 2.95346 8.82434 1.64619 9.68134 0.774677C10.5383 -0.38734 11.2525 -0.242086 11.8238 1.21044C13.1093 3.82497 17.3943 8.61829 19.1083 8.61829C20.8223 8.61829 19.9653 11.2328 17.3943 14.7189C15.6803 16.4619 13.9663 19.948 13.5378 21.691C12.6808 25.6128 10.9668 26.0485 8.39587 22.9982C7.53892 22.1268 4.96817 20.8196 3.25418 19.9481L3.25389 19.948C-0.602585 18.2049 -1.03106 16.0261 1.96841 14.2831C4.1109 12.9759 8.39587 6.00376 8.39587 3.82497Z" fill="#7021F8"/>
</svg>
