<?xml version="1.0" encoding="UTF-8"?>
<svg id="a" data-name="Layer 1" xmlns="http://www.w3.org/2000/svg" xmlns:xlink="http://www.w3.org/1999/xlink" viewBox="0 0 466.19 244.34">
  <defs>
    <style>
      .c {
        fill: #fff;
      }

      .d {
        fill: #caaafb;
      }

      .e {
        fill: url(#b);
      }
    </style>
    <linearGradient id="b" x1="0" y1="122.17" x2="244.34" y2="122.17" gradientUnits="userSpaceOnUse">
      <stop offset="0" stop-color="#ad7ff7"/>
      <stop offset="1" stop-color="#7021f8"/>
    </linearGradient>
  </defs>
  <rect class="e" x="0" y="0" width="244.34" height="244.34" rx="60" ry="60"/>
  <path class="d" d="M98.45,107.86c21.33,0,38.62-17.31,38.62-38.66s-17.29-38.66-38.62-38.66-38.62,17.31-38.62,38.66,17.29,38.66,38.62,38.66Z"/>
  <path class="c" d="M205.65,169.02c.72-5.84-3.38-11.14-9.16-11.85-5.78-.71-11.04,3.45-11.75,9.28l-3.82,31.15c-.72,5.84,3.38,11.14,9.16,11.85,5.78.71,11.04-3.45,11.75-9.28l3.82-31.15Z"/>
  <path class="c" d="M173.67,150.45c.4-5.65-3.99-10.56-9.79-10.97-5.8-.41-10.83,3.85-11.23,9.5l-2.86,40.84c-.4,5.65,3.99,10.56,9.79,10.97,5.8.41,10.83-3.85,11.23-9.5l2.86-40.84Z"/>
  <path class="c" d="M141.47,137.94c.19-5.57-4.36-10.25-10.18-10.46-5.82-.2-10.69,4.15-10.88,9.72l-1.75,50.02c-.19,5.57,4.36,10.25,10.18,10.46,5.82.2,10.69-4.15,10.88-9.72l1.75-50.02Z"/>
  <path class="c" d="M108.99,70c0-5.6-4.72-10.13-10.54-10.13s-10.54,4.54-10.54,10.13v120.21c0,5.6,4.72,10.13,10.54,10.13s10.54-4.54,10.54-10.13v-120.21Z"/>
  <path class="c" d="M61.13,171.69c-1.79-6.68-8.17-10.76-14.26-9.13-6.09,1.63-9.57,8.37-7.79,15.04l7.16,26.71c1.79,6.68,8.17,10.76,14.26,9.13,6.09-1.63,9.57-8.37,7.79-15.04l-7.16-26.71Z"/>
</svg>