<?xml version="1.0" encoding="UTF-8"?>
<svg id="a" data-name="Layer 1" xmlns="http://www.w3.org/2000/svg" viewBox="0 0 876.41 961.04">
  <defs>
    <style>
      .b {
        fill: #b5e3ff;
      }

      .c {
        fill: #0071ff;
      }
    </style>
  </defs>
  <path class="b" d="M313.81,405.49c111.86,0,202.54-90.77,202.54-202.75S425.66,0,313.81,0,111.27,90.77,111.27,202.75s90.68,202.75,202.54,202.75Z"/>
  <path class="c" d="M875.99,726.2c3.76-30.61-17.75-58.44-48.03-62.16-30.29-3.72-57.89,18.08-61.64,48.69l-20.06,163.35c-3.76,30.61,17.75,58.44,48.03,62.16,30.29,3.72,57.89-18.08,61.64-48.69l20.06-163.35Z"/>
  <path class="c" d="M708.29,628.86c2.07-29.64-20.92-55.4-51.36-57.52-30.44-2.13-56.8,20.17-58.87,49.82l-14.98,214.17c-2.07,29.64,20.92,55.4,51.36,57.52,30.44,2.13,56.8-20.17,58.87-49.82l14.98-214.17Z"/>
  <path class="c" d="M539.41,563.23c1.02-29.22-22.87-53.77-53.37-54.83-30.5-1.06-56.04,21.76-57.07,50.97l-9.16,262.31c-1.02,29.22,22.87,53.77,53.37,54.83,30.5,1.07,56.04-21.76,57.07-50.97l9.16-262.31Z"/>
  <path class="c" d="M369.11,206.92c0-29.35-24.74-53.14-55.25-53.14s-55.25,23.79-55.25,53.14v630.41c0,29.35,24.74,53.14,55.25,53.14s55.25-23.79,55.25-53.14V206.92Z"/>
  <path class="c" d="M118.09,740.21c-9.38-35.01-42.87-56.45-74.8-47.89-31.93,8.56-50.21,43.87-40.83,78.88l37.53,140.07c9.38,35.01,42.87,56.45,74.8,47.89,31.93-8.55,50.21-43.87,40.83-78.88l-37.53-140.07Z"/>
</svg>